<svg width="44.947998" height="39.000000" viewBox="0 0 44.948 39" fill="none" xmlns="http://www.w3.org/2000/svg" xmlns:xlink="http://www.w3.org/1999/xlink">
	<desc>
			Created with Pixso.
	</desc>
	<defs/>
	<path id="Vector" d="M10.4 1.69C15.83 1.69 21.01 6.76 21.27 7.02C21.61 7.36 22.03 7.44 22.37 7.44C22.71 7.44 23.14 7.27 23.48 7.02C23.56 7.02 26.11 4.48 29.59 2.96C31.38 2.19 32.99 1.77 34.52 1.77C36.73 1.77 38.68 2.62 40.38 4.31C42.5 6.34 43.35 8.79 43.1 11.59C42.16 21.91 26.28 34.09 22.37 36.96C20.67 35.7 16.77 32.73 12.77 28.93C6.06 22.24 2.24 16.32 1.73 11.5C1.56 8.71 2.41 6.34 4.45 4.22C6.32 2.36 8.44 1.69 10.4 1.69ZM10.4 0C7.68 0 5.3 1.01 3.26 3.04C0.8 5.58 -0.22 8.37 0.03 11.67C0.54 16.91 4.45 23.09 11.67 30.03C15.83 34 19.91 37.13 21.44 38.23L22.46 39L23.48 38.23C28.23 34.77 43.86 22.58 44.88 11.67C45.22 8.29 44.12 5.41 41.66 3.04C39.62 1.01 37.24 0 34.52 0C32.74 0 30.87 0.42 28.91 1.35C26.88 2.28 24.84 3.55 22.88 5.32L22.8 5.32L22.37 5.75C21.61 4.9 16.26 0 10.4 0Z" fill="#4E9DD3" fill-opacity="1.000000" fill-rule="nonzero"/>
</svg>
