<svg width="54.591797" height="50.569824" viewBox="0 0 54.5918 50.5698" fill="none" xmlns="http://www.w3.org/2000/svg" xmlns:xlink="http://www.w3.org/1999/xlink">
	<desc>
			Created with Pixso.
	</desc>
	<defs/>
	<path id="Vector" d="M22.47 46.15L22.47 50.56L26.45 48.31L22.47 46.15Z" fill="#000000" fill-opacity="1.000000" fill-rule="nonzero"/>
	<path id="Vector" d="M30.27 46.15L30.27 50.56L26.29 48.31L30.27 46.15Z" fill="#000000" fill-opacity="1.000000" fill-rule="nonzero"/>
	<path id="Vector" d="M38.07 18.01L37.7 34.47C37.7 34.47 35.65 37 27.55 37C19.57 37 18.3 34.11 18.3 34.11L17.99 18.98C13.7 19.04 9.47 15.61 9.47 11.35C9.47 7.08 12.98 3.6 17.27 3.6C18.36 3.6 19.45 3.84 20.41 4.26C21.68 1.74 24.4 0 27.43 0C30.33 0 32.69 1.62 34.08 3.96C35.35 3 36.92 2.52 38.67 2.52C42.96 2.52 46.47 5.94 46.47 10.27C46.53 14.53 42.42 18.01 38.07 18.01Z" fill="#FFFFFF" fill-opacity="1.000000" fill-rule="nonzero"/>
	<path id="Vector" d="M9.38 21.6C9.38 21.04 9.33 20.58 9.28 20.33C9.17 19.72 8.87 19.16 8.36 18.7C7.86 18.25 7.3 18.05 6.59 18.05C5.88 18.05 5.22 18.3 4.71 18.81C4.15 18.3 3.55 18.05 2.84 18.05C2.18 18.05 1.52 18.3 1.06 18.7C0.6 19.11 0.25 19.62 0.1 20.33C0.05 20.63 0 21.04 0 21.6L0 25.96C0 26.21 0.2 26.31 0.35 26.31C0.6 26.31 0.7 26.11 0.7 25.96L0.7 21.44C0.7 20.63 0.86 19.97 1.21 19.47C1.57 18.91 2.12 18.65 2.89 18.65C3.44 18.65 3.9 18.86 4.31 19.26C3.95 19.87 3.8 20.53 3.8 21.44L3.8 25.91C3.8 26.11 3.95 26.26 4.15 26.26C4.41 26.26 4.51 26.06 4.51 25.91L4.51 21.39C4.51 20.73 4.61 20.23 4.76 19.87C4.91 20.28 5.02 20.89 5.02 21.6L5.02 25.96C5.02 26.16 5.17 26.31 5.37 26.31C5.62 26.31 5.73 26.11 5.73 25.96L5.73 21.29C5.73 20.38 5.57 19.72 5.22 19.21C5.57 18.86 6.03 18.65 6.59 18.65C7.1 18.65 7.55 18.81 7.91 19.11C8.26 19.36 8.52 19.77 8.67 20.28C8.77 20.58 8.77 20.94 8.77 21.44L8.77 25.96C8.77 26.16 8.92 26.31 9.12 26.31C9.38 26.31 9.48 26.11 9.48 25.96L9.43 25.7L9.43 21.6L9.38 21.6Z" fill="#000000" fill-opacity="1.000000" fill-rule="nonzero"/>
	<path id="Vector" d="M17.59 19.31C16.78 18.5 15.77 18.1 14.6 18.1C13.43 18.1 12.42 18.5 11.61 19.31C10.8 20.12 10.39 21.14 10.39 22.31C10.39 23.47 10.8 24.49 11.66 25.3C12.52 26.11 13.54 26.52 14.7 26.52C15.56 26.52 16.38 26.26 17.04 25.81L17.04 25.91C17.04 26.26 17.24 26.36 17.39 26.36C17.54 26.36 17.75 26.21 17.75 25.91L17.75 25.25C18.56 24.39 18.96 23.42 18.96 22.31C18.86 21.09 18.41 20.07 17.59 19.31ZM16.93 22.36L16.93 24.99C16.22 25.6 15.46 25.91 14.6 25.91C13.64 25.91 12.78 25.55 12.12 24.84C11.41 24.18 11.1 23.37 11.1 22.36C11.1 21.34 11.46 20.53 12.17 19.82C12.88 19.11 13.69 18.76 14.7 18.76C15.67 18.76 16.53 19.11 17.19 19.82C17.85 20.53 18.25 21.34 18.25 22.31C18.25 23.02 18.05 23.62 17.7 24.18L17.7 22.36C17.59 21.85 16.93 21.85 16.93 22.36Z" fill="#000000" fill-opacity="1.000000" fill-rule="nonzero"/>
	<path id="Vector" d="M23.43 26.52C24.39 26.52 25.3 26.21 26.11 25.55C26.32 25.4 26.47 25.3 26.57 25.15L26.62 25.15L26.62 25.1C26.67 25.04 26.67 24.99 26.67 24.89C26.67 24.74 26.57 24.59 26.37 24.59L26.16 24.59L26.11 24.69L26.11 24.79C25.76 25.1 25.35 25.4 24.95 25.6C24.49 25.81 23.98 25.96 23.53 25.96C22.51 25.96 21.7 25.6 21.04 24.89C20.33 24.18 19.98 23.37 19.98 22.36C19.98 21.39 20.33 20.53 21.04 19.87C21.7 19.16 22.51 18.86 23.53 18.86C24.49 18.86 25.35 19.21 26.06 19.92L26.22 20.02L26.42 20.02L26.47 19.97C26.57 19.92 26.62 19.82 26.62 19.72L26.62 19.62L26.57 19.57C26.57 19.57 26.57 19.52 26.52 19.52C26.47 19.47 26.47 19.41 26.42 19.41C25.66 18.6 24.64 18.15 23.43 18.15C22.26 18.15 21.25 18.55 20.43 19.36C19.62 20.18 19.22 21.19 19.22 22.36C19.22 23.47 19.62 24.49 20.43 25.35C21.3 26.11 22.31 26.52 23.43 26.52Z" fill="#000000" fill-opacity="1.000000" fill-rule="nonzero"/>
	<path id="Vector" d="M33.87 19.31C33.06 18.5 32.05 18.1 30.88 18.1C29.71 18.1 28.7 18.5 27.89 19.31C27.08 20.12 26.67 21.14 26.67 22.31C26.67 23.47 27.08 24.49 27.89 25.3C28.75 26.11 29.77 26.52 30.93 26.52C31.79 26.52 32.61 26.26 33.27 25.81L33.27 25.91C33.27 26.26 33.47 26.36 33.62 26.36C33.77 26.36 33.98 26.21 33.98 25.91L33.98 25.25C34.79 24.39 35.19 23.42 35.19 22.31C35.14 21.04 34.74 20.07 33.87 19.31ZM33.21 22.36L33.21 24.99C32.5 25.6 31.74 25.91 30.88 25.91C29.92 25.91 29.06 25.55 28.35 24.84C27.64 24.18 27.33 23.37 27.33 22.36C27.33 21.34 27.69 20.53 28.4 19.82C29.11 19.11 29.92 18.76 30.93 18.76C31.9 18.76 32.76 19.11 33.42 19.82C34.13 20.53 34.48 21.34 34.48 22.31C34.48 23.02 34.28 23.67 33.92 24.23L33.92 22.41C33.87 21.85 33.21 21.85 33.21 22.36Z" fill="#000000" fill-opacity="1.000000" fill-rule="nonzero"/>
	<path id="Vector" d="M36.21 26.36C36.46 26.36 36.56 26.16 36.56 26.01L36.56 22.71C36.56 21.85 36.61 21.34 36.71 20.99C36.87 20.43 37.17 19.97 37.58 19.62C37.98 19.26 38.44 19.06 38.95 18.91C39.2 18.91 39.3 18.7 39.3 18.55C39.3 18.3 39.15 18.25 39.05 18.2L39 18.2L38.95 18.2C38.69 18.2 38.39 18.3 38.03 18.5C37.42 18.81 36.92 19.21 36.56 19.77C36.56 19.47 36.56 19.06 36.56 18.6C36.56 18.1 35.85 18.1 35.85 18.6L35.85 26.01C35.85 26.21 36 26.36 36.21 26.36Z" fill="#000000" fill-opacity="1.000000" fill-rule="nonzero"/>
	<path id="Vector" d="M46.65 19.31C45.84 18.5 44.83 18.1 43.66 18.1C42.5 18.1 41.48 18.5 40.67 19.31C39.86 20.12 39.45 21.14 39.45 22.31C39.45 23.47 39.86 24.49 40.67 25.3C41.53 26.11 42.55 26.52 43.71 26.52C44.88 26.52 45.89 26.11 46.71 25.25C47.52 24.39 47.92 23.37 47.92 22.2C47.92 21.09 47.52 20.07 46.65 19.31ZM43.66 18.76C44.63 18.76 45.49 19.11 46.15 19.82C46.86 20.53 47.21 21.34 47.21 22.31C47.21 23.32 46.86 24.18 46.1 24.84C45.44 25.55 44.63 25.86 43.61 25.86C42.65 25.86 41.79 25.5 41.13 24.79C40.42 24.08 40.06 23.27 40.06 22.31C40.06 21.29 40.42 20.48 41.13 19.77C41.79 19.06 42.65 18.76 43.66 18.76Z" fill="#000000" fill-opacity="1.000000" fill-rule="nonzero"/>
	<path id="Vector" d="M54.52 20.23C54.41 19.62 54.11 19.11 53.55 18.65C53.04 18.25 52.44 18 51.78 18C51.27 18 50.81 18.1 50.41 18.35C50.1 18.55 49.8 18.76 49.6 19.06L49.6 18.55C49.6 18.05 48.89 18.05 48.89 18.55L48.89 25.96C48.89 26.21 49.09 26.31 49.24 26.31C49.49 26.31 49.6 26.11 49.6 25.96L49.6 21.75C49.6 21.29 49.6 20.89 49.65 20.68C49.75 20.07 49.95 19.62 50.31 19.26C50.71 18.91 51.22 18.7 51.73 18.7C52.13 18.7 52.54 18.81 52.84 19.01C53.3 19.26 53.6 19.67 53.7 20.18C53.81 20.48 53.81 21.04 53.81 21.75L53.81 25.96C53.81 26.16 53.96 26.31 54.16 26.31C54.26 26.31 54.36 26.26 54.41 26.21L54.57 26.21L54.57 21.39C54.62 20.94 54.57 20.53 54.52 20.23Z" fill="#000000" fill-opacity="1.000000" fill-rule="nonzero"/>
	<path id="Vector" d="M15.87 36.1C15.51 36.1 15.46 36.3 15.46 36.46C15.46 36.71 15.67 36.81 15.82 36.81C16.22 36.81 16.53 36.91 16.88 37.11C17.54 37.47 17.9 38.08 17.9 38.84C17.9 39.4 17.69 39.85 17.29 40.26C16.88 40.66 16.43 40.87 15.87 40.87C15.06 40.87 14.5 40.51 14.04 39.8C13.89 39.6 13.79 39.3 13.79 38.94C13.79 38.69 13.64 38.54 13.43 38.54C13.18 38.54 13.08 38.74 13.08 38.89C13.08 39.6 13.38 40.26 13.94 40.72C14.45 41.22 15.11 41.48 15.82 41.48C16.58 41.48 17.24 41.22 17.75 40.66C18.25 40.16 18.56 39.5 18.56 38.74C18.56 37.98 18.3 37.37 17.8 36.86C17.29 36.4 16.63 36.1 15.87 36.1Z" fill="#000000" fill-opacity="1.000000" fill-rule="nonzero"/>
	<path id="Vector" d="M15.72 33.97C16.38 33.97 16.83 34.22 17.14 34.78C17.19 34.88 17.29 35.09 17.34 35.29C17.34 35.54 17.49 35.7 17.7 35.7C17.9 35.7 18.05 35.54 18.05 35.34C18.05 34.73 17.75 34.22 17.24 33.92C16.78 33.51 16.27 33.31 15.67 33.31C15.06 33.31 14.5 33.51 14.04 33.97C13.64 34.48 13.38 34.99 13.38 35.59C13.38 36.2 13.59 36.76 14.04 37.22C14.45 37.67 15.01 37.93 15.62 37.93C15.87 37.93 16.02 37.77 16.02 37.57C16.02 37.37 15.87 37.22 15.67 37.22C15.21 37.22 14.85 37.06 14.55 36.76C14.25 36.46 14.09 36.05 14.09 35.59C14.09 35.14 14.25 34.73 14.55 34.43C14.96 34.12 15.31 33.97 15.72 33.97Z" fill="#000000" fill-opacity="1.000000" fill-rule="nonzero"/>
	<path id="Vector" d="M24.69 36.71C24.69 36.15 24.64 35.75 24.59 35.49C24.44 34.83 24.14 34.33 23.68 33.97C23.17 33.51 22.67 33.31 22.01 33.31C21.55 33.31 21.09 33.41 20.69 33.67C20.33 33.82 20.08 34.07 19.88 34.33L19.88 31.28C19.88 30.78 19.17 30.78 19.17 31.28L19.17 40.97C19.17 41.22 19.37 41.32 19.52 41.32C19.77 41.32 19.88 41.12 19.88 40.97L19.88 36.91C19.88 36.61 19.88 36.35 19.93 36.15C19.93 36 19.93 35.9 19.93 35.85C20.03 35.29 20.23 34.83 20.59 34.48C20.99 34.12 21.4 33.97 22.01 33.97C22.41 33.97 22.82 34.07 23.12 34.27C23.58 34.58 23.83 34.93 23.93 35.39C24.03 35.69 24.03 36.2 24.03 36.91L24.03 40.97C24.03 41.17 24.19 41.32 24.39 41.32C24.64 41.32 24.74 41.12 24.74 40.97L24.69 40.72L24.69 36.71Z" fill="#000000" fill-opacity="1.000000" fill-rule="nonzero"/>
	<path id="Vector" d="M32.5 34.48C31.69 33.67 30.73 33.26 29.61 33.26C28.5 33.26 27.48 33.67 26.72 34.48C25.91 35.29 25.51 36.25 25.51 37.37C25.51 38.48 25.91 39.5 26.72 40.26C27.53 41.07 28.5 41.48 29.66 41.48C30.83 41.48 31.79 41.07 32.56 40.26C33.37 39.45 33.77 38.48 33.77 37.32C33.77 36.15 33.37 35.24 32.5 34.48ZM27.18 39.8C26.52 39.14 26.16 38.33 26.16 37.37C26.16 36.41 26.52 35.59 27.18 34.88C27.84 34.22 28.65 33.87 29.66 33.87C30.58 33.87 31.44 34.22 32.1 34.88C32.76 35.54 33.11 36.35 33.11 37.32C33.11 38.28 32.76 39.14 32.05 39.8C31.39 40.46 30.58 40.82 29.61 40.82C28.7 40.82 27.84 40.46 27.18 39.8Z" fill="#000000" fill-opacity="1.000000" fill-rule="nonzero"/>
	<path id="Vector" d="M38.54 33.26C37.37 33.26 36.41 33.67 35.65 34.48C34.89 35.29 34.43 36.25 34.43 37.37C34.43 38.48 34.84 39.45 35.6 40.26L35.6 43.56C35.6 43.76 35.75 43.91 35.95 43.91C36.21 43.91 36.31 43.71 36.31 43.56L36.31 40.87C36.97 41.32 37.73 41.53 38.54 41.53C39.71 41.53 40.72 41.12 41.48 40.36C42.29 39.55 42.75 38.64 42.75 37.47C42.75 36.3 42.29 35.34 41.48 34.53C40.67 33.67 39.71 33.26 38.54 33.26ZM35.95 37.01C35.8 37.01 35.6 37.17 35.6 37.42L35.6 39.14C35.29 38.64 35.14 38.03 35.14 37.37C35.14 36.46 35.5 35.59 36.16 34.93C36.87 34.22 37.68 33.92 38.64 33.92C39.6 33.92 40.42 34.27 41.13 34.93C41.79 35.59 42.14 36.41 42.14 37.42C42.14 38.38 41.79 39.19 41.08 39.85C40.42 40.51 39.6 40.87 38.64 40.87C37.78 40.87 37.02 40.56 36.36 39.96L36.36 37.42C36.31 37.06 36.11 37.01 35.95 37.01Z" fill="#000000" fill-opacity="1.000000" fill-rule="nonzero"/>
</svg>
